{"title":"Killer On The Line - S01E02 - Alan Jeremy &amp; Kirsty Wilson","uid":15883406,"size":1061057660,"categoryP":"video","categoryS":"tv_shows","magnet":"?xt=urn:btih:84e6f5e9f662a84c60af6bca0ea940f82ce15700&amp;dn=Killer+On+The+Line+-+S01E02+-+Alan+Jeremy+%26amp%3B+Kirsty+Wilson&amp;tr=udp%3A%2F%2Ftracker.leechers-paradise.org%3A6969&amp;tr=udp%3A%2F%2Fzer0day.ch%3A1337&amp;tr=udp%3A%2F%2Fopen.demonii.com%3A1337&amp;tr=udp%3A%2F%2Ftracker.coppersurfer.tk%3A6969&amp;tr=udp%3A%2F%2Fexodus.desync.com%3A6969","seeders":7,"leechers":4,"uploader":"Bullrout","files":1,"time":1474631383,"description":"Killer On The Line - S01E02 - Alan Jeremy &amp; Kirsty Wilson\r\n\r\nThis series looks at murders that were callously planned and premeditated, with the emergency calls originating from the killer themselves. Alan Jeremy was sentenced to life in jail after lying about the murder of his unfaithful partner.\r\n\r\nComplete name                            : Killer On The Line - S01E02 - Alan Jeremy &amp; Kirsty Wilson.mkv\r\nFormat                                   : Matroska\r\nFormat version                           : Version 4 / Version 2\r\nFile size                                : 1 012 MiB\r\nDuration                                 : 42 min 25 s\r\nOverall bit rate mode                    : Variable\r\nOverall bit rate                         : 3 334 kb/s\r\nEncoded date                             : UTC 2016-09-19 08:23:22\r\nWriting application                      : mkvmerge v9.4.2 ('So High') 64bit\r\nWriting library                          : libebml v1.3.4 + libmatroska v1.4.5\r\n\r\nVideo\r\nID                                       : 2\r\nFormat                                   : AVC\r\nFormat/Info                              : Advanced Video Codec\r\nFormat profile                           :   \r\nFormat settings, CABAC                   : Yes\r\nFormat settings, ReFrames                : 3 frames\r\nCodec ID                                 : V_MPEG4/ISO/AVC\r\nDuration                                 : 42 min 25 s\r\nBit rate mode                            : Variable\r\nBit rate                                 : 2 949 kb/s\r\nMaximum bit rate                         : 3 000 kb/s\r\nWidth                                    : 1 280 pixels\r\nHeight                                   : 720 pixels\r\nDisplay aspect ratio                     : 16:9\r\nFrame rate mode                          : Constant\r\nFrame rate                               : 25.000 FPS\r\nStandard                                 : PAL\r\nColor space                              : YUV\r\nChroma subsampling                       : 4:2:0\r\nBit depth                                : 8 bits\r\nScan type                                : Progressive\r\nBits/(Pixel*Frame)                       : 0.128\r\nStream size                              : 895 MiB (88%)\r\nWriting library                          : x264 core 112\r\nDefault                                  : Yes\r\nForced                                   : No\r\nColor range                              : Limited\r\nColor primaries                          : BT.709\r\nTransfer characteristics                 : BT.709\r\nMatrix coefficients                      : BT.709\r\n\r\nAudio\r\nID                                       : 1\r\nFormat                                   : AC-3\r\nFormat/Info                              : Audio Coding 3\r\nMode extension                           : CM (complete main)\r\nFormat settings, Endianness              : Big\r\nCodec ID                                 : A_AC3\r\nDuration                                 : 42 min 25 s\r\nBit rate mode                            : Constant\r\nBit rate                                 : 384 kb/s\r\nChannel(s)                               : 6 channels\r\nChannel positions                        : Front: L C R, Side: L R, LFE\r\nSampling rate                            : 48.0 kHz\r\nFrame rate                               : 31.250 FPS (1536 spf)\r\nCompression mode                         : Lossy\r\nStream size                              : 117 MiB (12%)\r\nDefault                                  : Yes\r\nForced                                   : No","torrent":{"xt":"urn:btih:84e6f5e9f662a84c60af6bca0ea940f82ce15700","amp;dn":"Killer+On+The+Line+-+S01E02+-+Alan+Jeremy+%26amp%3B+Kirsty+Wilson","amp;tr":["udp%3A%2F%2Ftracker.leechers-paradise.org%3A6969","udp%3A%2F%2Fzer0day.ch%3A1337","udp%3A%2F%2Fopen.demonii.com%3A1337","udp%3A%2F%2Ftracker.coppersurfer.tk%3A6969","udp%3A%2F%2Fexodus.desync.com%3A6969"],"infoHash":"84e6f5e9f662a84c60af6bca0ea940f82ce15700","infoHashBuffer":{"type":"Buffer","data":[132,230,245,233,246,98,168,76,96,175,107,202,14,169,64,248,44,225,87,0]},"announce":[],"urlList":[]}}